{
	"asset":{
		"version":"2.0",
		"generator":"Created using the official Cinema 4D glTF Exporter 1.000x290161"
	},
	"scenes":[{
		"nodes":[0]
	}],
	"nodes":[{
		"name":"horn",
		"translation":[2.7003815174102785,
		111.1144790649414,
		0.0],
		"rotation":[0.0,
		0.0,
		0.0,
		-1.0],
		"scale":[1.0,
		1.0,
		1.0],
		"children":[1,
		2,
		3,
		4,
		5]
	},
	{
		"name":"hornSmall2",
		"translation":[-235.9280548095703,
		0.0,
		0.0],
		"rotation":[0.0,
		0.0,
		0.0,
		-1.0],
		"scale":[1.0,
		1.0,
		1.0],
		"mesh":0
	},
	{
		"name":"hornSmall1",
		"translation":[-235.9280548095703,
		0.0,
		0.0],
		"rotation":[0.0,
		0.0,
		0.0,
		-1.0],
		"scale":[1.0,
		1.0,
		1.0],
		"mesh":1
	},
	{
		"name":"hornSmall3",
		"translation":[-235.9280548095703,
		0.0,
		0.0],
		"rotation":[0.0,
		0.0,
		0.0,
		-1.0],
		"scale":[1.0,
		1.0,
		1.0],
		"mesh":2
	},
	{
		"name":"hornLarge2",
		"translation":[-235.9280548095703,
		0.0,
		0.0],
		"rotation":[0.0,
		0.0,
		0.0,
		-1.0],
		"scale":[1.0,
		1.0,
		1.0],
		"mesh":3
	},
	{
		"name":"hornLarge1",
		"translation":[-235.7613983154297,
		0.0,
		0.0],
		"rotation":[0.0,
		0.0,
		0.0,
		-1.0],
		"scale":[1.0,
		1.0,
		1.0],
		"mesh":4
	}],
	"meshes":[{
		"primitives":[{
			"attributes":{
				"POSITION":1,
				"NORMAL":2,
				"TEXCOORD_0":3
			},
			"indices":0,
			"material":0
		}]
	},
	{
		"primitives":[{
			"attributes":{
				"POSITION":5,
				"NORMAL":6,
				"TEXCOORD_0":7
			},
			"indices":4,
			"material":0
		}]
	},
	{
		"primitives":[{
			"attributes":{
				"POSITION":9,
				"NORMAL":10,
				"TEXCOORD_0":11
			},
			"indices":8,
			"material":0
		}]
	},
	{
		"primitives":[{
			"attributes":{
				"POSITION":13,
				"NORMAL":14,
				"TEXCOORD_0":15
			},
			"indices":12,
			"material":0
		}]
	},
	{
		"primitives":[{
			"attributes":{
				"POSITION":17,
				"NORMAL":18,
				"TEXCOORD_0":19
			},
			"indices":16,
			"material":0
		}]
	}],
	"accessors":[{
		"bufferView":0,
		"type":"SCALAR",
		"componentType":5123,
		"count":1116,
		"byteOffset":0,
		"min":[0],
		"max":[419]
	},
	{
		"bufferView":1,
		"type":"VEC3",
		"componentType":5126,
		"count":420,
		"byteOffset":0,
		"min":[-275.74176025390627,
		271.1896667480469,
		-237.62033081054688],
		"max":[742.1970825195313,
		471.0013427734375,
		-184.936279296875]
	},
	{
		"bufferView":1,
		"type":"VEC3",
		"componentType":5126,
		"count":420,
		"byteOffset":12,
		"min":[-0.9857801198959351,
		-0.8353179693222046,
		-0.9041122794151306],
		"max":[0.9857801198959351,
		0.8332329988479614,
		0.9369725584983826]
	},
	{
		"bufferView":1,
		"type":"VEC2",
		"componentType":5126,
		"count":420,
		"byteOffset":24,
		"min":[0.0,
		0.0],
		"max":[1.0,
		1.0]
	},
	{
		"bufferView":2,
		"type":"SCALAR",
		"componentType":5123,
		"count":1116,
		"byteOffset":0,
		"min":[0],
		"max":[419]
	},
	{
		"bufferView":3,
		"type":"VEC3",
		"componentType":5126,
		"count":420,
		"byteOffset":0,
		"min":[-14.587075233459473,
		176.82054138183595,
		-103.40779113769531],
		"max":[481.04241943359377,
		309.7752380371094,
		-27.345359802246095]
	},
	{
		"bufferView":3,
		"type":"VEC3",
		"componentType":5126,
		"count":420,
		"byteOffset":12,
		"min":[-0.9746342301368713,
		-0.7791863679885864,
		-0.9640406370162964],
		"max":[0.9746337532997131,
		0.9384708404541016,
		0.9967207312583923]
	},
	{
		"bufferView":3,
		"type":"VEC2",
		"componentType":5126,
		"count":420,
		"byteOffset":24,
		"min":[0.0,
		0.0],
		"max":[1.0,
		1.0]
	},
	{
		"bufferView":4,
		"type":"SCALAR",
		"componentType":5123,
		"count":1980,
		"byteOffset":0,
		"min":[0],
		"max":[785]
	},
	{
		"bufferView":5,
		"type":"VEC3",
		"componentType":5126,
		"count":786,
		"byteOffset":0,
		"min":[-217.64663696289063,
		553.83740234375,
		-769.3812255859375],
		"max":[684.1019897460938,
		731.2737426757813,
		-714.5616455078125]
	},
	{
		"bufferView":5,
		"type":"VEC3",
		"componentType":5126,
		"count":786,
		"byteOffset":12,
		"min":[-0.9693822264671326,
		-0.7723639011383057,
		-0.9977817535400391],
		"max":[0.968940794467926,
		0.9980236887931824,
		0.9885624647140503]
	},
	{
		"bufferView":5,
		"type":"VEC2",
		"componentType":5126,
		"count":786,
		"byteOffset":24,
		"min":[0.0,
		0.0],
		"max":[1.0,
		1.0]
	},
	{
		"bufferView":6,
		"type":"SCALAR",
		"componentType":5123,
		"count":2772,
		"byteOffset":0,
		"min":[0],
		"max":[959]
	},
	{
		"bufferView":7,
		"type":"VEC3",
		"componentType":5126,
		"count":960,
		"byteOffset":0,
		"min":[-252.6671142578125,
		107.22156524658203,
		-838.4871826171875],
		"max":[719.1224365234375,
		779.4296264648438,
		-25.977548599243165]
	},
	{
		"bufferView":7,
		"type":"VEC3",
		"componentType":5126,
		"count":960,
		"byteOffset":12,
		"min":[-0.9943569898605347,
		-0.9542912840843201,
		-0.9935595393180847],
		"max":[0.9943570494651794,
		0.9647701978683472,
		0.9631275534629822]
	},
	{
		"bufferView":7,
		"type":"VEC2",
		"componentType":5126,
		"count":960,
		"byteOffset":24,
		"min":[0.0,
		0.0],
		"max":[1.0,
		1.0]
	},
	{
		"bufferView":8,
		"type":"SCALAR",
		"componentType":5123,
		"count":2196,
		"byteOffset":0,
		"min":[0],
		"max":[819]
	},
	{
		"bufferView":9,
		"type":"VEC3",
		"componentType":5126,
		"count":820,
		"byteOffset":0,
		"min":[-359.6108703613281,
		-101.81172943115235,
		-410.20172119140627],
		"max":[825.73291015625,
		488.3363037109375,
		64.21137237548828]
	},
	{
		"bufferView":9,
		"type":"VEC3",
		"componentType":5126,
		"count":820,
		"byteOffset":12,
		"min":[-0.953876256942749,
		-0.9856796264648438,
		-0.9808740019798279],
		"max":[0.9538764953613281,
		0.9999997615814209,
		0.9693892002105713]
	},
	{
		"bufferView":9,
		"type":"VEC2",
		"componentType":5126,
		"count":820,
		"byteOffset":24,
		"min":[0.0,
		0.0],
		"max":[1.0,
		1.0]
	}],
	"bufferViews":[{
		"buffer":0,
		"byteOffset":0,
		"byteLength":2232,
		"target":34963
	},
	{
		"buffer":0,
		"byteOffset":2232,
		"byteLength":13440,
		"target":34962,
		"byteStride":32
	},
	{
		"buffer":1,
		"byteOffset":0,
		"byteLength":2232,
		"target":34963
	},
	{
		"buffer":1,
		"byteOffset":2232,
		"byteLength":13440,
		"target":34962,
		"byteStride":32
	},
	{
		"buffer":2,
		"byteOffset":0,
		"byteLength":3960,
		"target":34963
	},
	{
		"buffer":2,
		"byteOffset":3960,
		"byteLength":25152,
		"target":34962,
		"byteStride":32
	},
	{
		"buffer":3,
		"byteOffset":0,
		"byteLength":5544,
		"target":34963
	},
	{
		"buffer":3,
		"byteOffset":5544,
		"byteLength":30720,
		"target":34962,
		"byteStride":32
	},
	{
		"buffer":4,
		"byteOffset":0,
		"byteLength":4392,
		"target":34963
	},
	{
		"buffer":4,
		"byteOffset":4392,
		"byteLength":26240,
		"target":34962,
		"byteStride":32
	}],
	"buffers":[{
		"uri":"data:application/octet-stream;base64,",
		"byteLength":15672
	},
	{
		"uri":"data:application/octet-stream;base64,",
		"byteLength":15672
	},
	{
		"uri":"data:application/octet-stream;base64,",
		"byteLength":29112
	},
	{
		"uri":"data:application/octet-stream;base64,",
		"byteLength":36264
	},
	{
		"uri":"data:application/octet-stream;base64,",
		"byteLength":30632
	}],
	"materials":[{
		"pbrMetallicRoughness":{
			"baseColorFactor":[0.03529411764705882,
			0.03529411764705882,
			0.054901960784313728,
			1.0],
			"metallicFactor":0.0,
			"roughnessFactor":0.18000000000000006
		},
		"emissiveFactor":[0.0,
		0.0,
		0.0],
		"alphaMode":"OPAQUE",
		"doubleSided":false,
		"name":"Mat.1"
	}]
}
