<svg xmlns="http://www.w3.org/2000/svg" width="45.659" height="49.827" viewBox="0 0 45.659 49.827">
  <g id="그룹_7" data-name="그룹 7" transform="translate(-318.619 -63)">
    <g id="그룹_6" data-name="그룹 6" transform="translate(-2126.874 1653.959)">
      <g id="그룹_4" data-name="그룹 4" transform="matrix(0.921, -0.391, 0.391, 0.921, 2445.492, -1579.807)">
        <path id="빼기_1" data-name="빼기 1" d="M21.007,42.015A21.008,21.008,0,0,1,6.153,6.153,21.034,21.034,0,0,1,28.534,1.389a20.241,20.241,0,1,0,.007,39.235A20.919,20.919,0,0,1,21.007,42.015Z" transform="translate(0 0)" fill="#fff"/>
      </g>
      <g id="그룹_5" data-name="그룹 5" transform="translate(2457.279 -1578.574)">
        <path id="패스_1" data-name="패스 1" d="M6.11,1.034c.671.55,1.1,1.282,1.832,3.356S9.955,9.511,9.955,9.511s.423-2.376-.43-3.6S9.955,5,9.955,5a6.228,6.228,0,0,1,1.222,4.51,33.363,33.363,0,0,1-.369,3.356l.369,3.3a4.32,4.32,0,0,0,.852-1.524.583.583,0,0,1,1.161,0,7.424,7.424,0,0,1-1.161,3.235c-.732,1.034,3.363.423,3.846,2.806a14.74,14.74,0,0,1,.362,3.786s-.617-2.5-2.5-3.114-5.242-1.524-5.792-6.712S1.592,8.356,1.592,7.256s2.02,0,2.02,0A14.237,14.237,0,0,1,6.969,9.209c.792.852-.859-3.665-.859-3.665S4.653,3.531,3.123,3.349.25,3.41.069,2.739s.007-.792.43-.973,3.6-.544,4.638.369S4.713,2.007,4.526.544,6.11,1.034,6.11,1.034Z" transform="translate(0 2.281) rotate(-8)" fill="#fff"/>
        <path id="패스_2" data-name="패스 2" d="M10.142,1.034c-.671.55-1.1,1.282-1.832,3.356S6.3,9.511,6.3,9.511s-.423-2.376.43-3.6S6.3,5,6.3,5a6.228,6.228,0,0,0-1.222,4.51,33.364,33.364,0,0,0,.369,3.356l-.369,3.3a4.32,4.32,0,0,1-.852-1.524.583.583,0,0,0-1.161,0,7.424,7.424,0,0,0,1.161,3.235C4.953,18.907.859,18.3.376,20.679a14.74,14.74,0,0,0-.362,3.786s.617-2.5,2.5-3.114,5.242-1.524,5.792-6.712,6.349-6.282,6.349-7.383-2.02,0-2.02,0A14.237,14.237,0,0,0,9.283,9.209c-.792.852.859-3.665.859-3.665S11.6,3.531,13.128,3.349s2.873.06,3.054-.611-.007-.792-.43-.973-3.6-.544-4.638.369.423-.128.611-1.591S10.142,1.034,10.142,1.034Z" transform="translate(17.821 0) rotate(9)" fill="#fff"/>
      </g>
    </g>
  </g>
</svg>
