<svg xmlns="http://www.w3.org/2000/svg" width="201.238" height="26.156" viewBox="0 0 201.238 26.156">
  <g id="그룹_7" data-name="그룹 7" transform="translate(-112.092 -281.278)">
    <g id="그룹_5" data-name="그룹 5" transform="translate(147.133 282.492)">
      <path id="패스_1" data-name="패스 1" d="M142.049,303.646v-20.33a1.235,1.235,0,0,1,1.341-1.371h1.768v21.7Z" transform="translate(-102.291 -281.492)" fill="#0073cc"/>
      <path id="패스_2" data-name="패스 2" d="M161.815,304.4a11.674,11.674,0,0,1-4.439-.826,10.023,10.023,0,0,1-3.458-2.332,10.566,10.566,0,0,1-2.235-3.593,13.495,13.495,0,0,1,0-9.121,10.6,10.6,0,0,1,2.235-3.576,10.179,10.179,0,0,1,3.456-2.347,12.112,12.112,0,0,1,8.884,0,10.168,10.168,0,0,1,3.456,2.347,10.62,10.62,0,0,1,2.232,3.576,12.631,12.631,0,0,1,.8,4.552,12.8,12.8,0,0,1-.794,4.569,10.63,10.63,0,0,1-2.235,3.593,10.071,10.071,0,0,1-3.458,2.332,11.673,11.673,0,0,1-4.439.826m0-19.955a7.669,7.669,0,0,0-3.039.607,7.306,7.306,0,0,0-2.469,1.733,8.509,8.509,0,0,0-1.685,2.732,10.484,10.484,0,0,0,0,7.141,8.487,8.487,0,0,0,1.685,2.719,7.306,7.306,0,0,0,2.469,1.733,7.875,7.875,0,0,0,6.062,0,7.268,7.268,0,0,0,2.484-1.733,8.575,8.575,0,0,0,1.685-2.719,10.524,10.524,0,0,0,0-7.141,8.553,8.553,0,0,0-1.685-2.732,7.3,7.3,0,0,0-2.484-1.733,7.712,7.712,0,0,0-3.024-.607" transform="translate(-89.059 -281.764)" fill="#0073cc"/>
      <path id="패스_3" data-name="패스 3" d="M165.08,303.646V284.69H161.1a1.312,1.312,0,0,1-1.009-.337,1.377,1.377,0,0,1-.3-.976v-1.431h13.688v2.744h-5.288v17.586a1.236,1.236,0,0,1-1.343,1.371Z" transform="translate(-75.736 -281.492)" fill="#0073cc"/>
      <path id="패스_4" data-name="패스 4" d="M147.013,287.348h0l.63.277Z" transform="translate(-94.86 -273.406)" fill="#0073cc"/>
      <path id="패스_5" data-name="패스 5" d="M147.139,287.4Z" transform="translate(-94.672 -273.324)" fill="#0073cc"/>
      <path id="패스_6" data-name="패스 6" d="M147,303.646v-8.162l1.276-2.375,5.291-11.164h3.184l-6.644,13.785v6.544a1.234,1.234,0,0,1-1.341,1.371Z" transform="translate(-94.877 -281.492)" fill="#0073cc"/>
      <path id="패스_7" data-name="패스 7" d="M188.957,303.646V291.512l.125-3.209-1.278,3.5-4.444,10.28a2.6,2.6,0,0,1-.5.8,1.32,1.32,0,0,1-.969.312h-2l9-21.248h2.04c1.021,0,1.131.7,1.131,1.009v19.321a1.235,1.235,0,0,1-1.341,1.371Z" transform="translate(-45.643 -281.492)" fill="#0073cc"/>
      <path id="패스_8" data-name="패스 8" d="M172.378,303.646v-.017a2.652,2.652,0,0,1-1.728-.672,2.975,2.975,0,0,1-.689-2.165V281.946H181.9v2.684h-8.829v6.387h8.557V293.7h-8.557v6.672c0,.4.08.5.09.507s.087.085.5.085H181.9v2.684Z" transform="translate(-60.51 -281.492)" fill="#0073cc"/>
      <path id="패스_9" data-name="패스 9" d="M193.878,303.646c-.594,0-1.238-.025-1.915-.075s-1.346-.127-1.988-.225c-.682-.127-1.326-.28-1.923-.452a9.915,9.915,0,0,1-1.476-.549l-.227-.11.382-2.654.417.185a12.146,12.146,0,0,0,2.844.9,25.21,25.21,0,0,0,3.258.332,12.681,12.681,0,0,0,1.556-.13,7.817,7.817,0,0,0,1.88-.492,4.934,4.934,0,0,0,1.556-.884,1.688,1.688,0,0,0,.612-1.346,2.268,2.268,0,0,0-.452-1.426,4.831,4.831,0,0,0-1.258-1.116,14.53,14.53,0,0,0-1.838-.9q-1.045-.427-2.16-.876c-.824-.322-1.648-.682-2.454-1.066a10.206,10.206,0,0,1-2.18-1.383,6.418,6.418,0,0,1-1.583-1.738,3.809,3.809,0,0,1-.527-2.242l0-.022a5.384,5.384,0,0,1,.964-2.567,6.076,6.076,0,0,1,1.915-1.685,8.177,8.177,0,0,1,2.569-.914,15.809,15.809,0,0,1,2.921-.265,17.112,17.112,0,0,1,3.069.3,11.4,11.4,0,0,1,2.7.816l.227.1-.3,2.527-.4-.127c-.7-.222-1.476-.464-2.312-.717a8.558,8.558,0,0,0-2.482-.34c-.165,0-.332,0-.5.01h-.017a11.728,11.728,0,0,0-1.625.13,6.525,6.525,0,0,0-1.653.454A3.773,3.773,0,0,0,190.2,286a2.224,2.224,0,0,0-.552,1.493,1.727,1.727,0,0,0,.372,1.194,4.945,4.945,0,0,0,1.154,1.009,11.7,11.7,0,0,0,1.71.9c.637.277,1.313.574,2.07.914.824.35,1.665.722,2.5,1.1a14.292,14.292,0,0,1,2.34,1.338,8.221,8.221,0,0,1,1.7,1.758,3.74,3.74,0,0,1,.682,2.185,4.392,4.392,0,0,1-.639,2.325,6.029,6.029,0,0,1-1.743,1.8,9.561,9.561,0,0,1-2.662,1.2,11.764,11.764,0,0,1-3.253.434" transform="translate(-35.978 -281.492)" fill="#0073cc"/>
      <path id="패스_10" data-name="패스 10" d="M142.823,288.46a9.345,9.345,0,0,0-1.915-3.436,8.918,8.918,0,0,0-3.238-2.267,11.854,11.854,0,0,0-4.579-.811h-6.964v18.846a2.976,2.976,0,0,0,.689,2.165,2.889,2.889,0,0,0,2.07.689l.347,0V284.63h3.678a9.373,9.373,0,0,1,3.441.564,5.6,5.6,0,0,1,2.265,1.593,6.739,6.739,0,0,1,1.293,2.549,13.747,13.747,0,0,1,0,6.8,6.89,6.89,0,0,1-1.308,2.577,5.849,5.849,0,0,1-2.272,1.658,8.8,8.8,0,0,1-3.418.594h-2.642v2.682h2.821a11.813,11.813,0,0,0,4.594-.826,8.911,8.911,0,0,0,3.253-2.3,9.247,9.247,0,0,0,1.9-3.451,14.7,14.7,0,0,0,.6-4.32,14.284,14.284,0,0,0-.619-4.29" transform="translate(-126.126 -281.492)" fill="#0073cc"/>
      <path id="패스_11" data-name="패스 11" d="M152.042,303.646l-8.257-20.876a1.869,1.869,0,0,0-.2-.395.853.853,0,0,0-.3-.282,1.568,1.568,0,0,0-.752-.147h-1.171l-7.4,18.689-.017.047c-.552,1.311-.207,1.808.262,2.28a2.923,2.923,0,0,0,2.132.689l11.316-.005-1-2.677h-9.448c-.057,0-.11-.005-.157-.007l5.356-14.362,5.066,13.593,1.281,3.441,0,.012Z" transform="translate(-114.851 -281.492)" fill="#0073cc"/>
      <path id="패스_12" data-name="패스 12" d="M139.191,289.254h0l1.281,3.439Z" transform="translate(-106.57 -270.552)" fill="#0073cc"/>
      <path id="패스_13" data-name="패스 13" d="M147.519,281.946h-3.155l6.007,12.441,1.585-3.132Z" transform="translate(-98.825 -281.492)" fill="#0073cc"/>
      <path id="패스_14" data-name="패스 14" d="M179.907,282.72a1.39,1.39,0,0,0-.454-.6,1.371,1.371,0,0,0-.767-.177h-2.247v21.7H178.2a1.236,1.236,0,0,0,1.343-1.371V291.527l-.127-3.211,1.276,3.506,4.112,9.308,1.461-3.448Z" transform="translate(-50.813 -281.492)" fill="#0073cc"/>
    </g>
    <g id="그룹_6" data-name="그룹 6" transform="translate(112.092 281.278)">
      <path id="패스_15" data-name="패스 15" d="M117.692,282.954a1.509,1.509,0,1,1-1.433-1.583,1.51,1.51,0,0,1,1.433,1.583" transform="translate(-108.225 -281.14)" fill="#0073cc"/>
      <path id="패스_16" data-name="패스 16" d="M118.656,282.666s.182-.22.33-.245a.467.467,0,0,1,.347.077l.012.007a.394.394,0,0,1,.107.115.516.516,0,0,1,.067.172.446.446,0,0,1-.037.275h0l0,.005a.414.414,0,0,1-.085.122,12.443,12.443,0,0,0-1.915,3.79,1.3,1.3,0,0,0-.007.325.907.907,0,0,0,.092.26c.017.032.037.062.055.09a.769.769,0,0,0,.327.227l.062.018.047.007.02,0,.052,0a1.272,1.272,0,0,0,.172,0,2.289,2.289,0,0,0,.687-.17c.08-.032.162-.072.25-.117.182-.092.375-.2.577-.315h0s.315-.2.742-.4a7.063,7.063,0,0,1,.841-.362,1.743,1.743,0,0,1,.647-.112,2.1,2.1,0,0,1,.444.052h0a1.943,1.943,0,0,1,1.468,1.553,2,2,0,0,1,.027.242s.5,2.342-7,16.355a.47.47,0,0,1-.19.125.285.285,0,0,1-.287-.437h0c1.041-2.459,1.848-4.519,2.472-6.25,1.705-4.729,2.04-6.976,2-8.07a3.105,3.105,0,0,0-.062-.524,1.386,1.386,0,0,0-.237-.542,1.311,1.311,0,0,0-.1-.107c-.022-.022-.045-.045-.067-.065l0,0a1.184,1.184,0,0,0-.4-.225,1.22,1.22,0,0,0-.587-.042,1.179,1.179,0,0,0-.462.187h0l-.02.012-.007.007h0c-2.424,1.583-2.639,1.476-2.689,1.506v0l-.037.01a1.2,1.2,0,0,1-1.393-.974,1.614,1.614,0,0,1,.022-.517c.035-.19.277-1.665,3.725-6.067" transform="translate(-107.898 -279.576)" fill="#0073cc"/>
      <path id="패스_17" data-name="패스 17" d="M124.934,284.649a1.943,1.943,0,0,0-1.468-1.553h0a1.981,1.981,0,0,0-.447-.05,1.792,1.792,0,0,0-.647.11,13.92,13.92,0,0,0-4.225,2.869,2.714,2.714,0,0,0,.235-.137c.175-.1.377-.2.577-.315h0s.315-.2.744-.4a7.439,7.439,0,0,1,.839-.362,1.807,1.807,0,0,1,.647-.112,2.118,2.118,0,0,1,.447.052h0A1.943,1.943,0,0,1,123.1,286.3a2,2,0,0,1,.027.242s.5,2.342-7,16.355c8.829-13.246,8.874-17.368,8.829-18.005a1.339,1.339,0,0,0-.027-.242" transform="translate(-106.046 -278.63)" fill="#0073cc"/>
      <path id="패스_18" data-name="패스 18" d="M137.887,291.311a13.078,13.078,0,0,0-14.7-9.88l-.18.028a.728.728,0,0,0,.212,1.428l.087-.007a11.658,11.658,0,1,1-2.759,22.757q-.232-.075-.457-.157-.449-.161-.884-.36l-.1-.04a1.861,1.861,0,0,1-.172-.087c-.172-.082-.34-.172-.507-.265-.035-.015-.067-.03-.1-.047a2.036,2.036,0,0,1-.19-.115,11.687,11.687,0,0,1-3.393-3.016,11.512,11.512,0,0,1-1.668-3.084,13.133,13.133,0,0,1-.434-7.873,13.077,13.077,0,1,0,25.241.719" transform="translate(-112.092 -281.278)" fill="#0073cc"/>
      <path id="패스_19" data-name="패스 19" d="M117.025,290.395h0l-.037.007a1.2,1.2,0,0,1-1.393-.974,1.622,1.622,0,0,1,.02-.517c.035-.192.28-1.665,3.725-6.067-4.926,5.076-5.476,7.573-5.5,7.8a2.048,2.048,0,0,0,.012.524,1.208,1.208,0,0,0,1.4.974l.037-.01v0c.749-.122,2.474-1.323,4.424-3.241-2.424,1.583-2.642,1.476-2.689,1.506" transform="translate(-109.487 -278.933)" fill="#0073cc"/>
    </g>
  </g>
</svg>
